<svg xmlns="http://www.w3.org/2000/svg" width="611" height="570" viewBox="0 0 611 570" fill="none"
    data-locator-experimental-features="true">
    <g clip-path="url(#clip0_2919_2629)">
        <path
            d="M590.357 529.286C601.604 529.286 610.714 538.396 610.714 549.643V570H407.143V549.643C407.143 538.396 416.253 529.286 427.5 529.286H590.357Z"
            fill="currentColor" />
        <path
            d="M590.357 529.286V508.928C590.357 497.681 581.247 488.571 570 488.571H447.857C436.61 488.571 427.5 497.681 427.5 508.928V529.286H590.357Z"
            fill="currentColor" />
        <path d="M508.928 0H101.786V81.4286H508.928V0Z" fill="currentColor" />
        <path d="M508.928 61.0713H101.786V81.4285H508.928V61.0713Z" fill="currentColor" />
        <path d="M590.357 162.857H20.3571L0 81.4287H610.714L590.357 162.857Z" fill="currentColor" />
        <path d="M570 162.857H447.857V488.571H570V162.857Z" fill="currentColor" />
        <path
            d="M183.214 529.286C194.462 529.286 203.571 538.396 203.571 549.643V570H0V549.643C0 538.396 9.10982 529.286 20.3571 529.286H183.214Z"
            fill="currentColor" />
        <path
            d="M183.214 529.286V508.928C183.214 497.681 174.104 488.571 162.857 488.571H40.7146C29.4673 488.571 20.3575 497.681 20.3575 508.928L20.3574 529.286H183.214Z"
            fill="currentColor" />
        <path d="M162.857 162.857H40.7139V488.571H162.857V162.857Z" fill="currentColor" />
        <path
            d="M162.857 324.086C162.857 245.385 226.656 181.586 305.357 181.586C384.058 181.586 447.857 245.385 447.857 324.086V120.514H162.857V324.086Z"
            fill="currentColor" />
    </g>
    <defs>
        <clipPath id="clip0_2919_2629">
            <rect width="611" height="570" fill="white" />
        </clipPath>
    </defs>
</svg>